<svg xmlns="http://www.w3.org/2000/svg" xmlns:xlink="http://www.w3.org/1999/xlink" width="96" zoomAndPan="magnify" viewBox="0 0 72 72" height="96" preserveAspectRatio="xMidYMid meet" version="1.0"><defs><clipPath id="aaa87630e2"><path d="M 0 8.785156 L 59.25 8.785156 L 59.25 63.535156 L 0 63.535156 Z M 0 8.785156 " clip-rule="nonzero"/></clipPath><clipPath id="9103f65189"><path d="M 31.492188 8.785156 L 71.921875 8.785156 L 71.921875 46.109375 L 31.492188 46.109375 Z M 31.492188 8.785156 " clip-rule="nonzero"/></clipPath><clipPath id="419a3e68d8"><path d="M 39.300781 23.386719 L 64.800781 23.386719 L 64.800781 31.507812 L 39.300781 31.507812 Z M 39.300781 23.386719 " clip-rule="nonzero"/></clipPath></defs><g clip-path="url(#aaa87630e2)"><path fill="#d50032" d="M 59.144531 48.367188 L 54.375 63.1875 L 0 63.1875 L 17.503906 8.800781 L 32.324219 8.800781 L 19.59375 48.367188 Z M 59.144531 48.367188 " fill-opacity="1" fill-rule="nonzero"/></g><g clip-path="url(#9103f65189)"><path fill="#bb9754" d="M 31.429688 18.964844 L 34.703125 8.796875 L 71.992188 8.796875 L 59.988281 46.097656 L 49.824219 46.097656 L 58.554688 18.964844 Z M 31.429688 18.964844 " fill-opacity="1" fill-rule="nonzero"/></g><g clip-path="url(#419a3e68d8)"><path fill="#bb9754" d="M 57.621094 23.394531 L 39.300781 23.394531 L 46.480469 31.5 L 64.800781 31.5 Z M 57.621094 23.394531 " fill-opacity="1" fill-rule="nonzero"/></g></svg>