<svg width="896" height="896" viewBox="0 0 896 896" fill="none" xmlns="http://www.w3.org/2000/svg">
<path d="M321.024 642.368V342.72H221.376V642.4H320.992L321.024 642.368ZM271.2 301.76C305.92 301.76 327.584 278.72 327.584 249.952C326.944 220.576 305.92 198.208 271.904 198.208C237.76 198.208 215.52 220.608 215.52 249.952C215.52 278.752 237.152 301.792 270.592 301.792L271.2 301.76ZM680.224 642.368V470.56C680.224 378.496 631.072 335.648 565.568 335.648C512.64 335.648 488.96 364.768 475.776 385.152V342.656H376.16C377.472 370.816 376.16 642.368 376.16 642.368H475.776V475.008C475.776 466.048 476.416 457.088 479.04 450.752C486.208 432.832 502.624 414.304 530.112 414.304C566.176 414.304 580.672 441.76 580.672 482.048V642.4H680.256L680.224 642.368ZM448 0C695.424 0 896 200.544 896 448C896 695.424 695.424 896 448 896C200.544 896 0 695.424 0 448C0 200.544 200.544 0 448 0Z" fill="#BB9754"/>
</svg>
