<svg xmlns="http://www.w3.org/2000/svg" xmlns:xlink="http://www.w3.org/1999/xlink" width="309" zoomAndPan="magnify" viewBox="0 0 231.75 52.499999" height="70" preserveAspectRatio="xMidYMid meet" version="1.0"><defs><g/></defs><g fill="#f7f7f7" fill-opacity="1"><g transform="translate(-0.516506, 37.514059)"><g><path d="M 9.890625 -5.40625 L 25.984375 -5.40625 L 25.984375 0 L 3.4375 0 L 3.4375 -32.015625 L 9.890625 -32.015625 Z M 9.890625 -5.40625 "/></g></g></g><g fill="#f7f7f7" fill-opacity="1"><g transform="translate(26.799278, 37.514059)"><g><path d="M 9.21875 -11.265625 C 9.21875 -9.628906 9.253906 -8.4375 9.328125 -7.6875 C 9.398438 -6.945312 9.554688 -6.351562 9.796875 -5.90625 C 10.066406 -5.394531 10.472656 -4.972656 11.015625 -4.640625 C 11.566406 -4.316406 12.25 -4.15625 13.0625 -4.15625 C 14.132812 -4.15625 15.101562 -4.453125 15.96875 -5.046875 C 16.832031 -5.648438 17.382812 -6.382812 17.625 -7.25 C 17.882812 -8.113281 18.015625 -9.960938 18.015625 -12.796875 L 18.015625 -23.171875 L 24.140625 -23.171875 L 24.140625 0 L 18.46875 0 L 18.46875 -3.484375 L 18.375 -3.484375 C 17.507812 -2.171875 16.390625 -1.171875 15.015625 -0.484375 C 13.648438 0.191406 12.238281 0.53125 10.78125 0.53125 C 9.46875 0.53125 8.222656 0.265625 7.046875 -0.265625 C 5.867188 -0.804688 4.96875 -1.582031 4.34375 -2.59375 C 3.894531 -3.3125 3.570312 -4.101562 3.375 -4.96875 C 3.175781 -5.832031 3.078125 -6.921875 3.078125 -8.234375 L 3.078125 -23.171875 L 9.21875 -23.171875 Z M 9.21875 -11.265625 "/></g></g></g><g fill="#f7f7f7" fill-opacity="1"><g transform="translate(54.115061, 37.514059)"><g><path d="M 9.34375 -26.34375 L 3.21875 -26.34375 L 3.21875 -32.015625 L 9.34375 -32.015625 Z M 9.34375 0 L 3.21875 0 L 3.21875 -23.171875 L 9.34375 -23.171875 Z M 9.34375 0 "/></g></g></g><g fill="#f7f7f7" fill-opacity="1"><g transform="translate(66.54352, 37.514059)"><g><path d="M 20.75 -18.828125 L 11.9375 -8.671875 L 10.859375 -7.515625 C 9.609375 -6.171875 8.910156 -5.410156 8.765625 -5.234375 C 9.085938 -5.234375 9.578125 -5.265625 10.234375 -5.328125 L 11.84375 -5.40625 L 21.46875 -5.40625 L 21.46875 0 L 0.765625 0 L 0.765625 -4.78125 L 10.78125 -16.28125 C 11.34375 -16.9375 11.953125 -17.59375 12.609375 -18.25 C 11.390625 -18.125 10.554688 -18.0625 10.109375 -18.0625 L 1.609375 -18.0625 L 1.609375 -23.171875 L 20.75 -23.171875 Z M 20.75 -18.828125 "/></g></g></g><g fill="#f7f7f7" fill-opacity="1"><g transform="translate(88.896855, 37.514059)"><g/></g></g><g fill="#f7f7f7" fill-opacity="1"><g transform="translate(101.325313, 37.514059)"><g><path d="M 25.265625 -26.609375 L 9.75 -26.609375 L 9.75 -19 L 23.171875 -19 L 23.171875 -13.59375 L 9.75 -13.59375 L 9.75 0 L 3.3125 0 L 3.3125 -32.015625 L 25.265625 -32.015625 Z M 25.265625 -26.609375 "/></g></g></g><g fill="#f7f7f7" fill-opacity="1"><g transform="translate(128.641097, 37.514059)"><g><path d="M 12.078125 -23.703125 C 15.773438 -23.703125 18.53125 -22.5 20.34375 -20.09375 C 22.164062 -17.695312 23.078125 -14.28125 23.078125 -9.84375 L 7.6875 -9.84375 C 7.75 -8.289062 8.203125 -6.953125 9.046875 -5.828125 C 9.898438 -4.710938 11.132812 -4.15625 12.75 -4.15625 C 13.757812 -4.15625 14.582031 -4.414062 15.21875 -4.9375 C 15.863281 -5.457031 16.335938 -6.269531 16.640625 -7.375 L 22.765625 -6.34375 C 21.984375 -4.082031 20.726562 -2.367188 19 -1.203125 C 17.269531 -0.046875 15.15625 0.53125 12.65625 0.53125 C 8.925781 0.53125 6.109375 -0.582031 4.203125 -2.8125 C 3.304688 -3.851562 2.617188 -5.164062 2.140625 -6.75 C 1.671875 -8.332031 1.4375 -9.898438 1.4375 -11.453125 C 1.4375 -13.566406 1.816406 -15.554688 2.578125 -17.421875 C 3.335938 -19.285156 4.515625 -20.796875 6.109375 -21.953125 C 7.703125 -23.117188 9.691406 -23.703125 12.078125 -23.703125 Z M 7.828125 -13.59375 L 17 -13.59375 C 16.96875 -15.46875 16.492188 -16.835938 15.578125 -17.703125 C 14.671875 -18.566406 13.609375 -19 12.390625 -19 C 10.953125 -19 9.832031 -18.484375 9.03125 -17.453125 C 8.226562 -16.429688 7.828125 -15.144531 7.828125 -13.59375 Z M 7.828125 -13.59375 "/></g></g></g><g fill="#f7f7f7" fill-opacity="1"><g transform="translate(153.498015, 37.514059)"><g><path d="M 9.34375 0 L 3.21875 0 L 3.21875 -32.015625 L 9.34375 -32.015625 Z M 9.34375 0 "/></g></g></g><g fill="#f7f7f7" fill-opacity="1"><g transform="translate(165.926473, 37.514059)"><g><path d="M 9.34375 -26.34375 L 3.21875 -26.34375 L 3.21875 -32.015625 L 9.34375 -32.015625 Z M 9.34375 0 L 3.21875 0 L 3.21875 -23.171875 L 9.34375 -23.171875 Z M 9.34375 0 "/></g></g></g><g fill="#f7f7f7" fill-opacity="1"><g transform="translate(178.354932, 37.514059)"><g><path d="M 15.96875 -23.703125 C 17.664062 -23.703125 19.25 -23.238281 20.71875 -22.3125 C 22.195312 -21.382812 23.390625 -20 24.296875 -18.15625 C 25.210938 -16.3125 25.671875 -14.046875 25.671875 -11.359375 C 25.671875 -8.765625 25.226562 -6.570312 24.34375 -4.78125 C 23.46875 -3 22.289062 -1.664062 20.8125 -0.78125 C 19.34375 0.09375 17.710938 0.53125 15.921875 0.53125 C 13.296875 0.53125 11.046875 -0.539062 9.171875 -2.6875 L 9.171875 8.8125 L 3.046875 8.8125 L 3.046875 -23.171875 L 8.765625 -23.171875 L 8.765625 -19.765625 L 8.859375 -19.765625 C 9.566406 -20.835938 10.554688 -21.757812 11.828125 -22.53125 C 13.097656 -23.3125 14.476562 -23.703125 15.96875 -23.703125 Z M 9.609375 -15.03125 C 9.285156 -14.070312 9.125 -12.757812 9.125 -11.09375 C 9.125 -8.789062 9.609375 -7.054688 10.578125 -5.890625 C 11.546875 -4.734375 12.773438 -4.15625 14.265625 -4.15625 C 16.085938 -4.15625 17.390625 -4.867188 18.171875 -6.296875 C 18.960938 -7.734375 19.359375 -9.507812 19.359375 -11.625 C 19.359375 -14.101562 18.890625 -15.921875 17.953125 -17.078125 C 17.015625 -18.242188 15.84375 -18.828125 14.4375 -18.828125 C 13.394531 -18.828125 12.429688 -18.5 11.546875 -17.84375 C 10.671875 -17.1875 10.023438 -16.25 9.609375 -15.03125 Z M 9.609375 -15.03125 "/></g></g></g><g fill="#f7f7f7" fill-opacity="1"><g transform="translate(205.670727, 37.514059)"><g><path d="M 12.078125 -23.703125 C 15.773438 -23.703125 18.53125 -22.5 20.34375 -20.09375 C 22.164062 -17.695312 23.078125 -14.28125 23.078125 -9.84375 L 7.6875 -9.84375 C 7.75 -8.289062 8.203125 -6.953125 9.046875 -5.828125 C 9.898438 -4.710938 11.132812 -4.15625 12.75 -4.15625 C 13.757812 -4.15625 14.582031 -4.414062 15.21875 -4.9375 C 15.863281 -5.457031 16.335938 -6.269531 16.640625 -7.375 L 22.765625 -6.34375 C 21.984375 -4.082031 20.726562 -2.367188 19 -1.203125 C 17.269531 -0.046875 15.15625 0.53125 12.65625 0.53125 C 8.925781 0.53125 6.109375 -0.582031 4.203125 -2.8125 C 3.304688 -3.851562 2.617188 -5.164062 2.140625 -6.75 C 1.671875 -8.332031 1.4375 -9.898438 1.4375 -11.453125 C 1.4375 -13.566406 1.816406 -15.554688 2.578125 -17.421875 C 3.335938 -19.285156 4.515625 -20.796875 6.109375 -21.953125 C 7.703125 -23.117188 9.691406 -23.703125 12.078125 -23.703125 Z M 7.828125 -13.59375 L 17 -13.59375 C 16.96875 -15.46875 16.492188 -16.835938 15.578125 -17.703125 C 14.671875 -18.566406 13.609375 -19 12.390625 -19 C 10.953125 -19 9.832031 -18.484375 9.03125 -17.453125 C 8.226562 -16.429688 7.828125 -15.144531 7.828125 -13.59375 Z M 7.828125 -13.59375 "/></g></g></g></svg>