<?xml version="1.0" encoding="utf-8"?>
<!-- Svg Vector Icons : http://www.onlinewebfonts.com/icon -->
<!DOCTYPE svg PUBLIC "-//W3C//DTD SVG 1.1//EN" "http://www.w3.org/Graphics/SVG/1.1/DTD/svg11.dtd">
<svg version="1.1" height="44px" width="44px" xmlns="http://www.w3.org/2000/svg" xmlns:xlink="http://www.w3.org/1999/xlink" x="0px" y="0px" viewBox="0 0 256 256" enable-background="new 0 0 256 256" xml:space="preserve">
<metadata> Svg Vector Icons : http://www.onlinewebfonts.com/icon </metadata>
<g><g><g><path fill="#BB9754" d="M120.1,10.1c-0.9,0.1-3.8,0.4-6.4,0.7c-16.3,1.9-34.7,8.4-49,17.4C50.8,37,37,50.9,28.1,64.7c-4.2,6.7-9.8,18.4-12.2,25.8c-4.2,12.8-6,23.6-5.9,37.4c0,19.1,3.7,35.1,12,52c11.7,23.8,29.9,42.1,53.5,53.7c8.3,4.1,14.6,6.5,21.7,8.4c17.6,4.6,34.9,5.2,52.4,2c47.8-8.9,85.5-46.6,94.4-94.4c3.2-17.5,2.6-34.8-2-52.4c-1.9-7.1-4.3-13.5-8.4-21.7c-17.3-35.1-50.4-58.9-89.7-64.6C139.1,10.3,123.4,9.7,120.1,10.1z M87.4,52.1c1.2,0.3,3.6,0.7,5.4,0.9c4.1,0.6,5.7,2,7,6.2c2,6,8.1,30.2,8.3,32.6c0.1,2.3,0,2.8-1.8,5.4c-1.1,1.6-3.9,4.6-6.3,6.7c-7.3,6.3-7.2,6.2-6.9,8.5c0.1,1.1,1.6,4.7,3.2,8c9.3,18.9,20.5,31.5,38,42.7c7.3,4.6,8.4,4.7,12.6,1.1c1.6-1.3,5.5-4.9,8.6-7.9c3.3-3.2,6.3-5.6,7.1-5.8c1-0.2,2.2,0,4.4,1.1c3.8,1.8,29.6,19,30.6,20.4c1,1.5,0.9,4-0.5,8.9c-2.8,9.5-6.3,14-14.4,18.2c-6.9,3.5-11.8,4.8-19.8,4.9c-6.5,0.1-6.8,0.1-11.6-1.6c-5.6-1.9-22.1-10.1-29.8-14.7c-18-10.9-34.4-28.6-47.1-50.8c-4.1-7.2-10.3-19.6-12.3-24.8C54.3,92,56.7,73.7,68.6,61C76,53.2,81.2,50.7,87.4,52.1z"/></g></g></g>
</svg>