<svg width="42" height="42" viewBox="0 0 42 42" fill="none" xmlns="http://www.w3.org/2000/svg">
<path d="M19.6422 0.735884C19.4875 0.753071 18.9891 0.804634 18.5422 0.856196C15.7406 1.18276 12.5781 2.29995 10.1203 3.84682C7.73125 5.35932 5.35937 7.74838 3.82969 10.1203C3.10781 11.2718 2.14531 13.2828 1.73281 14.5546C1.01094 16.7546 0.701562 18.6109 0.71875 20.9828C0.71875 24.2656 1.35469 27.0156 2.78125 29.9203C4.79219 34.0109 7.92031 37.1562 11.9766 39.1499C13.4031 39.8546 14.4859 40.2671 15.7062 40.5937C18.7312 41.3843 21.7047 41.4874 24.7125 40.9374C32.9281 39.4078 39.4078 32.9281 40.9375 24.7124C41.4875 21.7046 41.3844 18.7312 40.5937 15.7062C40.2672 14.4859 39.8547 13.3859 39.15 11.9765C36.1766 5.9437 30.4875 1.85307 23.7328 0.873383C22.9078 0.770258 20.2094 0.667134 19.6422 0.735884ZM14.0219 7.95463C14.2281 8.0062 14.6406 8.07495 14.95 8.10932C15.6547 8.21245 15.9297 8.45307 16.1531 9.17495C16.4969 10.2062 17.5453 14.3656 17.5797 14.7781C17.5969 15.1734 17.5797 15.2593 17.2703 15.7062C17.0813 15.9812 16.6 16.4968 16.1875 16.8578C14.9328 17.9406 14.95 17.9234 15.0016 18.3187C15.0187 18.5078 15.2766 19.1265 15.5516 19.6937C17.15 22.9421 19.075 25.1078 22.0828 27.0328C23.3375 27.8234 23.5266 27.8406 24.2484 27.2218C24.5234 26.9984 25.1937 26.3796 25.7266 25.864C26.2937 25.314 26.8094 24.9015 26.9469 24.8671C27.1188 24.8328 27.325 24.8671 27.7031 25.0562C28.3562 25.3656 32.7906 28.3218 32.9625 28.5624C33.1344 28.8203 33.1172 29.2499 32.8766 30.0921C32.3953 31.7249 31.7937 32.4984 30.4016 33.2203C29.2156 33.8218 28.3734 34.0453 26.9984 34.0624C25.8812 34.0796 25.8297 34.0796 25.0047 33.7874C24.0422 33.4609 21.2062 32.0515 19.8828 31.2609C16.7891 29.3874 13.9703 26.3453 11.7875 22.5296C11.0828 21.2921 10.0172 19.1609 9.67344 18.2671C8.33281 14.8124 8.74531 11.6671 10.7906 9.48432C12.0625 8.1437 12.9562 7.71401 14.0219 7.95463Z" fill="#BB9754"/>
</svg>
